<mxfile host="app.diagrams.net" modified="2023-07-17T16:57:24.000Z" agent="Mozilla/5.0 (Windows NT 10.0; Win64; x64) AppleWebKit/537.36 (KHTML, like Gecko) Chrome/114.0.0.0 Safari/537.36" etag="LBdKdVMBSCKn5KJf7PNC" version="21.6.2" type="device">
  <diagram id="R2lEEEUBdFMjLlhIrx00" name="Page-1">
    <mxGraphModel dx="840" dy="458" grid="1" gridSize="10" guides="1" tooltips="1" connect="1" arrows="1" fold="1" page="1" pageScale="1" pageWidth="850" pageHeight="1100" math="0" shadow="0" extFonts="Permanent Marker^https://fonts.googleapis.com/css?family=Permanent+Marker">
      <root>
        <mxCell id="0" />
        <mxCell id="1" parent="0" />
        <mxCell id="Hpv5rLEoRyB7x9i4mZ83-6" value="" style="edgeStyle=orthogonalEdgeStyle;rounded=0;orthogonalLoop=1;jettySize=auto;html=1;exitX=0.25;exitY=0;exitDx=0;exitDy=0;entryX=0.5;entryY=1;entryDx=0;entryDy=0;" edge="1" parent="1" source="Hpv5rLEoRyB7x9i4mZ83-2" target="Hpv5rLEoRyB7x9i4mZ83-5">
          <mxGeometry relative="1" as="geometry">
            <mxPoint x="270" y="110" as="targetPoint" />
            <Array as="points">
              <mxPoint x="300" y="140" />
            </Array>
          </mxGeometry>
        </mxCell>
        <mxCell id="Hpv5rLEoRyB7x9i4mZ83-9" value="" style="edgeStyle=orthogonalEdgeStyle;rounded=0;orthogonalLoop=1;jettySize=auto;html=1;" edge="1" parent="1" source="Hpv5rLEoRyB7x9i4mZ83-2" target="Hpv5rLEoRyB7x9i4mZ83-8">
          <mxGeometry relative="1" as="geometry" />
        </mxCell>
        <mxCell id="Hpv5rLEoRyB7x9i4mZ83-11" style="edgeStyle=orthogonalEdgeStyle;rounded=0;orthogonalLoop=1;jettySize=auto;html=1;exitX=0.902;exitY=-0.014;exitDx=0;exitDy=0;entryX=0;entryY=0.5;entryDx=0;entryDy=0;exitPerimeter=0;" edge="1" parent="1" source="Hpv5rLEoRyB7x9i4mZ83-2" target="Hpv5rLEoRyB7x9i4mZ83-10">
          <mxGeometry relative="1" as="geometry">
            <Array as="points">
              <mxPoint x="340" y="100" />
            </Array>
          </mxGeometry>
        </mxCell>
        <mxCell id="Hpv5rLEoRyB7x9i4mZ83-13" value="" style="edgeStyle=orthogonalEdgeStyle;rounded=0;orthogonalLoop=1;jettySize=auto;html=1;" edge="1" parent="1" source="Hpv5rLEoRyB7x9i4mZ83-2" target="Hpv5rLEoRyB7x9i4mZ83-12">
          <mxGeometry relative="1" as="geometry" />
        </mxCell>
        <mxCell id="Hpv5rLEoRyB7x9i4mZ83-23" style="edgeStyle=orthogonalEdgeStyle;rounded=0;orthogonalLoop=1;jettySize=auto;html=1;entryX=1;entryY=0.5;entryDx=0;entryDy=0;" edge="1" parent="1" source="Hpv5rLEoRyB7x9i4mZ83-2" target="Hpv5rLEoRyB7x9i4mZ83-20">
          <mxGeometry relative="1" as="geometry">
            <mxPoint x="220" y="200" as="targetPoint" />
            <Array as="points">
              <mxPoint x="220" y="160" />
              <mxPoint x="220" y="190" />
            </Array>
          </mxGeometry>
        </mxCell>
        <mxCell id="Hpv5rLEoRyB7x9i4mZ83-30" style="edgeStyle=orthogonalEdgeStyle;rounded=0;orthogonalLoop=1;jettySize=auto;html=1;exitX=0.25;exitY=0;exitDx=0;exitDy=0;entryX=0.692;entryY=1.024;entryDx=0;entryDy=0;entryPerimeter=0;" edge="1" parent="1" source="Hpv5rLEoRyB7x9i4mZ83-2" target="Hpv5rLEoRyB7x9i4mZ83-3">
          <mxGeometry relative="1" as="geometry" />
        </mxCell>
        <mxCell id="Hpv5rLEoRyB7x9i4mZ83-2" value="STUDENT" style="whiteSpace=wrap;html=1;align=center;fillColor=#a20025;fontColor=#ffffff;strokeColor=#6F0000;" vertex="1" parent="1">
          <mxGeometry x="250" y="140" width="100" height="40" as="geometry" />
        </mxCell>
        <mxCell id="Hpv5rLEoRyB7x9i4mZ83-3" value="EMAIL" style="ellipse;whiteSpace=wrap;html=1;align=center;fillColor=#d5e8d4;strokeColor=#82b366;" vertex="1" parent="1">
          <mxGeometry x="150" y="30" width="100" height="40" as="geometry" />
        </mxCell>
        <mxCell id="Hpv5rLEoRyB7x9i4mZ83-5" value="ID" style="ellipse;whiteSpace=wrap;html=1;align=center;fontStyle=4;fillColor=#f8cecc;strokeColor=#b85450;" vertex="1" parent="1">
          <mxGeometry x="250" y="50" width="100" height="40" as="geometry" />
        </mxCell>
        <mxCell id="Hpv5rLEoRyB7x9i4mZ83-8" value="DOB" style="ellipse;whiteSpace=wrap;html=1;align=center;fillColor=#d5e8d4;strokeColor=#82b366;" vertex="1" parent="1">
          <mxGeometry x="90" y="100" width="100" height="40" as="geometry" />
        </mxCell>
        <mxCell id="Hpv5rLEoRyB7x9i4mZ83-10" value="AGE" style="ellipse;whiteSpace=wrap;html=1;align=center;dashed=1;fillColor=#dae8fc;strokeColor=#6c8ebf;" vertex="1" parent="1">
          <mxGeometry x="420" y="80" width="100" height="40" as="geometry" />
        </mxCell>
        <mxCell id="Hpv5rLEoRyB7x9i4mZ83-15" value="" style="edgeStyle=orthogonalEdgeStyle;rounded=0;orthogonalLoop=1;jettySize=auto;html=1;" edge="1" parent="1" source="Hpv5rLEoRyB7x9i4mZ83-12" target="Hpv5rLEoRyB7x9i4mZ83-14">
          <mxGeometry relative="1" as="geometry" />
        </mxCell>
        <mxCell id="Hpv5rLEoRyB7x9i4mZ83-16" value="" style="edgeStyle=orthogonalEdgeStyle;rounded=0;orthogonalLoop=1;jettySize=auto;html=1;" edge="1" parent="1" source="Hpv5rLEoRyB7x9i4mZ83-12" target="Hpv5rLEoRyB7x9i4mZ83-14">
          <mxGeometry relative="1" as="geometry" />
        </mxCell>
        <mxCell id="Hpv5rLEoRyB7x9i4mZ83-17" value="" style="edgeStyle=orthogonalEdgeStyle;rounded=0;orthogonalLoop=1;jettySize=auto;html=1;" edge="1" parent="1" source="Hpv5rLEoRyB7x9i4mZ83-12" target="Hpv5rLEoRyB7x9i4mZ83-14">
          <mxGeometry relative="1" as="geometry" />
        </mxCell>
        <mxCell id="Hpv5rLEoRyB7x9i4mZ83-19" value="" style="edgeStyle=orthogonalEdgeStyle;rounded=0;orthogonalLoop=1;jettySize=auto;html=1;" edge="1" parent="1" source="Hpv5rLEoRyB7x9i4mZ83-12" target="Hpv5rLEoRyB7x9i4mZ83-18">
          <mxGeometry relative="1" as="geometry" />
        </mxCell>
        <mxCell id="Hpv5rLEoRyB7x9i4mZ83-12" value="NAME" style="ellipse;whiteSpace=wrap;html=1;align=center;fillColor=#fff2cc;strokeColor=#d6b656;" vertex="1" parent="1">
          <mxGeometry x="420" y="140" width="100" height="40" as="geometry" />
        </mxCell>
        <mxCell id="Hpv5rLEoRyB7x9i4mZ83-14" value="FIRST-NAME" style="ellipse;whiteSpace=wrap;html=1;align=center;fillColor=#d5e8d4;strokeColor=#82b366;" vertex="1" parent="1">
          <mxGeometry x="580" y="100" width="100" height="40" as="geometry" />
        </mxCell>
        <mxCell id="Hpv5rLEoRyB7x9i4mZ83-18" value="LAST-NAME" style="ellipse;whiteSpace=wrap;html=1;align=center;fillColor=#d5e8d4;strokeColor=#82b366;" vertex="1" parent="1">
          <mxGeometry x="580" y="170" width="100" height="40" as="geometry" />
        </mxCell>
        <mxCell id="Hpv5rLEoRyB7x9i4mZ83-20" value="PHONE" style="ellipse;shape=doubleEllipse;margin=3;whiteSpace=wrap;html=1;align=center;fillColor=#e1d5e7;strokeColor=#9673a6;" vertex="1" parent="1">
          <mxGeometry x="90" y="170" width="100" height="40" as="geometry" />
        </mxCell>
        <mxCell id="Hpv5rLEoRyB7x9i4mZ83-24" value="&lt;font color=&quot;#000111&quot;&gt;Dotted = Derived&amp;nbsp; &amp;nbsp; &amp;nbsp; &amp;nbsp; &amp;nbsp; &amp;nbsp; &amp;nbsp;&lt;/font&gt;" style="text;html=1;strokeColor=none;fillColor=none;align=center;verticalAlign=middle;whiteSpace=wrap;rounded=0;" vertex="1" parent="1">
          <mxGeometry x="430" y="240" width="170" height="30" as="geometry" />
        </mxCell>
        <mxCell id="Hpv5rLEoRyB7x9i4mZ83-25" value="Oval attached to other ovals = Composite&amp;nbsp; &amp;nbsp; &amp;nbsp; &amp;nbsp;" style="text;html=1;strokeColor=none;fillColor=none;align=center;verticalAlign=middle;whiteSpace=wrap;rounded=0;" vertex="1" parent="1">
          <mxGeometry x="440" y="270" width="260" height="30" as="geometry" />
        </mxCell>
        <mxCell id="Hpv5rLEoRyB7x9i4mZ83-27" value="Oval having Boundary = Multi-valued&amp;nbsp;&amp;nbsp;" style="text;html=1;strokeColor=none;fillColor=none;align=center;verticalAlign=middle;whiteSpace=wrap;rounded=0;" vertex="1" parent="1">
          <mxGeometry x="430" y="300" width="240" height="30" as="geometry" />
        </mxCell>
        <mxCell id="Hpv5rLEoRyB7x9i4mZ83-28" value="Single Oval = Simple" style="text;html=1;strokeColor=none;fillColor=none;align=center;verticalAlign=middle;whiteSpace=wrap;rounded=0;" vertex="1" parent="1">
          <mxGeometry x="410" y="330" width="190" height="30" as="geometry" />
        </mxCell>
        <mxCell id="Hpv5rLEoRyB7x9i4mZ83-29" value="Underlined text inside oval = key&amp;nbsp; &amp;nbsp; &amp;nbsp;" style="text;html=1;strokeColor=none;fillColor=none;align=center;verticalAlign=middle;whiteSpace=wrap;rounded=0;" vertex="1" parent="1">
          <mxGeometry x="430" y="360" width="230" height="30" as="geometry" />
        </mxCell>
        <mxCell id="Hpv5rLEoRyB7x9i4mZ83-33" value="" style="edgeStyle=orthogonalEdgeStyle;rounded=0;orthogonalLoop=1;jettySize=auto;html=1;" edge="1" parent="1" source="Hpv5rLEoRyB7x9i4mZ83-31" target="Hpv5rLEoRyB7x9i4mZ83-32">
          <mxGeometry relative="1" as="geometry" />
        </mxCell>
        <mxCell id="Hpv5rLEoRyB7x9i4mZ83-42" style="edgeStyle=orthogonalEdgeStyle;rounded=0;orthogonalLoop=1;jettySize=auto;html=1;exitX=0;exitY=0.5;exitDx=0;exitDy=0;entryX=0.562;entryY=0.973;entryDx=0;entryDy=0;entryPerimeter=0;" edge="1" parent="1" source="Hpv5rLEoRyB7x9i4mZ83-31" target="Hpv5rLEoRyB7x9i4mZ83-34">
          <mxGeometry relative="1" as="geometry">
            <mxPoint x="140" y="330" as="targetPoint" />
            <Array as="points">
              <mxPoint x="146" y="330" />
            </Array>
          </mxGeometry>
        </mxCell>
        <mxCell id="Hpv5rLEoRyB7x9i4mZ83-44" style="edgeStyle=orthogonalEdgeStyle;rounded=0;orthogonalLoop=1;jettySize=auto;html=1;exitX=0;exitY=0.5;exitDx=0;exitDy=0;entryX=0.562;entryY=-0.074;entryDx=0;entryDy=0;entryPerimeter=0;" edge="1" parent="1" source="Hpv5rLEoRyB7x9i4mZ83-31" target="Hpv5rLEoRyB7x9i4mZ83-35">
          <mxGeometry relative="1" as="geometry" />
        </mxCell>
        <mxCell id="Hpv5rLEoRyB7x9i4mZ83-31" value="Batch" style="whiteSpace=wrap;html=1;align=center;fillColor=#a20025;fontColor=#ffffff;strokeColor=#6F0000;" vertex="1" parent="1">
          <mxGeometry x="250" y="310" width="100" height="40" as="geometry" />
        </mxCell>
        <mxCell id="Hpv5rLEoRyB7x9i4mZ83-32" value="ID" style="ellipse;whiteSpace=wrap;html=1;align=center;fontStyle=4;fillColor=#f8cecc;strokeColor=#b85450;" vertex="1" parent="1">
          <mxGeometry x="250" y="400" width="100" height="40" as="geometry" />
        </mxCell>
        <mxCell id="Hpv5rLEoRyB7x9i4mZ83-34" value="name" style="ellipse;whiteSpace=wrap;html=1;align=center;fillColor=#d5e8d4;strokeColor=#82b366;" vertex="1" parent="1">
          <mxGeometry x="90" y="265" width="100" height="40" as="geometry" />
        </mxCell>
        <mxCell id="Hpv5rLEoRyB7x9i4mZ83-35" value="Start-time" style="ellipse;whiteSpace=wrap;html=1;align=center;fillColor=#d5e8d4;strokeColor=#82b366;" vertex="1" parent="1">
          <mxGeometry x="90" y="360" width="100" height="40" as="geometry" />
        </mxCell>
        <mxCell id="Hpv5rLEoRyB7x9i4mZ83-53" style="edgeStyle=orthogonalEdgeStyle;rounded=0;orthogonalLoop=1;jettySize=auto;html=1;exitX=0.5;exitY=0;exitDx=0;exitDy=0;entryX=0.5;entryY=1;entryDx=0;entryDy=0;" edge="1" parent="1" source="Hpv5rLEoRyB7x9i4mZ83-39" target="Hpv5rLEoRyB7x9i4mZ83-2">
          <mxGeometry relative="1" as="geometry" />
        </mxCell>
        <mxCell id="Hpv5rLEoRyB7x9i4mZ83-39" value="Contains" style="shape=rhombus;perimeter=rhombusPerimeter;whiteSpace=wrap;html=1;align=center;fillColor=#1ba1e2;fontColor=#ffffff;strokeColor=#006EAF;" vertex="1" parent="1">
          <mxGeometry x="240" y="225" width="120" height="60" as="geometry" />
        </mxCell>
        <mxCell id="Hpv5rLEoRyB7x9i4mZ83-46" value="" style="endArrow=none;html=1;rounded=0;entryX=0.5;entryY=0;entryDx=0;entryDy=0;exitX=0.5;exitY=1;exitDx=0;exitDy=0;" edge="1" parent="1" source="Hpv5rLEoRyB7x9i4mZ83-39" target="Hpv5rLEoRyB7x9i4mZ83-31">
          <mxGeometry relative="1" as="geometry">
            <mxPoint x="300" y="280" as="sourcePoint" />
            <mxPoint x="480" y="240" as="targetPoint" />
          </mxGeometry>
        </mxCell>
        <mxCell id="Hpv5rLEoRyB7x9i4mZ83-50" value="1" style="text;html=1;align=center;verticalAlign=middle;resizable=0;points=[];autosize=1;strokeColor=none;fillColor=none;" vertex="1" parent="1">
          <mxGeometry x="290" y="285" width="30" height="30" as="geometry" />
        </mxCell>
        <mxCell id="Hpv5rLEoRyB7x9i4mZ83-51" value="n" style="text;html=1;align=center;verticalAlign=middle;resizable=0;points=[];autosize=1;strokeColor=none;fillColor=none;" vertex="1" parent="1">
          <mxGeometry x="290" y="195" width="30" height="30" as="geometry" />
        </mxCell>
      </root>
    </mxGraphModel>
  </diagram>
</mxfile>
